<svg xmlns="http://www.w3.org/2000/svg" viewBox="0 0 64 64" fill="none" aria-hidden="true">
  <rect width="64" height="64" rx="14" fill="#0f2a4a"/>
  <path
    d="M32 12c-7.2 6.4-12 12.6-12 19.2 0 7.4 5.4 12.8 12 12.8s12-5.4 12-12.8C44 24.6 39.2 18.4 32 12z"
    stroke="#ffffff"
    stroke-width="2.5"
    fill="none"
  />
  <path
    d="M32 18c-4.8 4.3-8 8.5-8 12.8 0 5 3.4 8.5 8 8.5s8-3.5 8-8.5C40 26.5 36.8 22.3 32 18z"
    stroke="#b45309"
    stroke-width="2"
    fill="none"
  />
  <circle cx="32" cy="30.5" r="3.2" fill="#b45309"/>
  <path d="M20 48h24" stroke="#ffffff" stroke-width="2.5" stroke-linecap="round" opacity="0.9"/>
  <path d="M24 53h16" stroke="#ffffff" stroke-width="2" stroke-linecap="round" opacity="0.55"/>
</svg>
