<svg xmlns="http://www.w3.org/2000/svg" viewBox="0 0 64 64" fill="none" role="img" aria-label="Importnest">
  <rect width="64" height="64" rx="14" fill="#FFFFFF"/>
  <!-- Cart -->
  <path d="M18 22h4.2l2.2 18.5a3 3 0 0 0 3 2.7h15.6a3 3 0 0 0 3-2.5L48 28H24" stroke="#0B2A4A" stroke-width="2.6" stroke-linecap="round" stroke-linejoin="round"/>
  <circle cx="30" cy="48.5" r="2.4" fill="#0B2A4A"/>
  <circle cx="42" cy="48.5" r="2.4" fill="#0B2A4A"/>
  <!-- Nest swooshes -->
  <path d="M26 36c2.5-6 6.5-9.5 11-9.5" stroke="#3B82C4" stroke-width="2" stroke-linecap="round"/>
  <path d="M25 38.5c3-5.5 7.2-8.2 12.2-8.2" stroke="#5BA3D9" stroke-width="1.8" stroke-linecap="round" opacity="0.85"/>
  <!-- Tag -->
  <rect x="31" y="27" width="11" height="9" rx="2" fill="#3B82C4"/>
  <path d="M33.6 31.6l1.7 1.7 3.4-3.5" stroke="#9FEA3A" stroke-width="1.7" stroke-linecap="round" stroke-linejoin="round"/>
  <!-- Accent -->
  <path d="M44 24c3 1.5 5 4 5.5 7" stroke="#9FEA3A" stroke-width="1.8" stroke-linecap="round"/>
</svg>
